HIERARCHY
ROOT Hips
{
     OFFSET 1.88212 96.90440 -13.34250
     CHANNELS 6 Xposition Yposition Zposition Zrotation Xrotation Yrotation
     JOINT Spine
     {
          OFFSET 0.00000 11.89050 0.00000
          CHANNELS 3 Zrotation Xrotation Yrotation
          JOINT Spine1
          {
               OFFSET -0.00000 25.65740 0.12766
               CHANNELS 3 Zrotation Xrotation Yrotation
               JOINT HEad
               {
                    OFFSET 0.00000 8.73416 0.01134
                    CHANNELS 3 Zrotation Xrotation Yrotation
                    End Site
                    {
                         OFFSET -0.29000 12.77420 2.51395
                    }
               }
               JOINT LeftShoulder1
               {
                    OFFSET 8.99000 -0.36225 -0.22000
                    CHANNELS 3 Zrotation Xrotation Yrotation
                    JOINT LeftArm
                    {
                         OFFSET 10.28270 -0.00338 0.32212
                         CHANNELS 3 Zrotation Xrotation Yrotation
                         JOINT LeftForeArm
                         {
                              OFFSET 32.76690 0.09914 -1.42434
                              CHANNELS 3 Zrotation Xrotation Yrotation
                              JOINT LeftHand
                              {
                                   OFFSET 27.56430 0.08536 1.02216
                                   CHANNELS 3 Zrotation Xrotation Yrotation
                                   End Site
                                   {
                                        OFFSET 16.74430 -0.60000 1.50291
                                   }
                              }
                         }
                    }
               }
               JOINT RightShoulder
               {
                    OFFSET -8.99000 -0.36225 -0.22000
                    CHANNELS 3 Zrotation Xrotation Yrotation
                    JOINT RightArm
                    {
                         OFFSET -10.28270 -0.00338 0.32212
                         CHANNELS 3 Zrotation Xrotation Yrotation
                         JOINT RightForeArm
                         {
                              OFFSET -32.89710 0.09914 -1.42434
                              CHANNELS 3 Zrotation Xrotation Yrotation
                              JOINT RightHand
                              {
                                   OFFSET -27.49210 0.08536 1.02216
                                   CHANNELS 3 Zrotation Xrotation Yrotation
                                   End Site
                                   {
                                        OFFSET -16.63120 -0.60000 1.50291
                                   }
                              }
                         }
                    }
               }
          }
     }
     JOINT LeftUpLeg
     {
          OFFSET 8.94580 -8.66707 0.10165
          CHANNELS 3 Zrotation Xrotation Yrotation
          JOINT LeftLeg
          {
               OFFSET 0.00000 -44.42270 1.37270
               CHANNELS 3 Zrotation Xrotation Yrotation
               JOINT LeftFoot
               {
                    OFFSET -0.25355 -42.09240 -1.46059
                    CHANNELS 3 Zrotation Xrotation Yrotation
                    JOINT LeftToes
                    {
                         OFFSET -0.04000 -4.41509 8.49910
                         CHANNELS 3 Zrotation Xrotation Yrotation
                         End Site
                         {
                              OFFSET 0.08000 -0.04745 9.77979
                         }
                    }
               }
          }
     }
     JOINT RightUpLeg
     {
          OFFSET -8.94580 -8.66707 0.10165
          CHANNELS 3 Zrotation Xrotation Yrotation
          JOINT RightLeg
          {
               OFFSET 0.00000 -44.42270 1.37270
               CHANNELS 3 Zrotation Xrotation Yrotation
               JOINT RightFoot
               {
                    OFFSET 0.25355 -42.09240 -1.46059
                    CHANNELS 3 Zrotation Xrotation Yrotation
                    JOINT RightToes
                    {
                         OFFSET 0.04000 -4.41509 8.49910
                         CHANNELS 3 Zrotation Xrotation Yrotation
                         End Site
                         {
                              OFFSET -0.08000 -0.13745 9.77979
                         }
                    }
               }
          }
     }
}
MOTION
Frames: 13
Frame Time: 0.01667
94.54309 79.88438 -104.20493 -12.23917 -0.49686 -36.43566 9.52207 12.47982 4.66041 -0.01101 0.02683 0.02596 -1.77033 15.56990 5.51467 -13.82230 16.02658 12.24746 -105.02637 -55.26968 -87.22489 -42.59969 58.87070 -101.55399 7.71628 9.79587 1.37877 6.75173 21.82592 17.12538 71.34760 -26.02065 74.92390 29.38415 50.05978 109.84596 -5.98311 11.04925 0.73703 8.14931 -32.41494 24.34572 371.33066 55.93621 -362.51901 12.74363 -0.46694 0.19202 -25.49602 -16.05769 -13.04772 -20.80737 -12.56136 -14.24585 -362.78754 61.82322 384.34293 35.95743 0.07447 0.14958 0.76426 8.98411 -14.24724 
96.96742 83.55040 -103.12231 -12.05950 -0.27652 -38.75333 9.98198 12.13084 4.87389 -0.00954 0.02495 0.02339 -3.73526 18.89364 5.68039 -15.01378 15.69810 13.23269 -103.37646 -55.55567 -85.33747 -41.21125 59.13833 -103.04044 8.80156 10.05582 2.53873 5.78075 21.91965 17.89796 70.28320 -26.52151 72.98508 29.36561 49.53569 110.89706 -6.16250 9.49600 0.42670 5.58029 -28.77083 21.08616 372.79492 48.11560 -368.01965 6.82721 -0.45038 0.23336 -12.61472 -2.73854 -18.51942 -15.45885 -10.21303 -17.00397 -364.18085 68.07009 386.60220 22.83792 -0.30244 -0.80314 17.88790 6.98113 -7.15688 
99.09409 86.77826 -102.44835 -11.58018 -0.19556 -40.80656 9.06288 12.95826 5.52494 -0.06710 0.11049 0.03078 -4.57325 20.31768 5.63056 -14.96513 14.08105 13.36253 -101.82319 -55.76262 -83.53145 -39.80420 59.39323 -104.46004 8.15976 9.76440 1.23669 6.01026 20.53561 18.25230 69.14841 -26.88937 70.94953 29.21530 49.18463 112.05602 -5.53992 10.41635 0.46259 3.18452 -25.72955 17.07763 373.54236 40.66147 -372.02588 0.54759 -0.50591 0.22111 -12.47079 -4.54012 -6.26178 -9.93622 -6.97568 -18.93306 -365.33249 70.31705 386.61703 33.82843 0.04364 0.45942 -7.03742 -0.49266 -7.74956 
101.05653 89.46621 -102.19260 -8.98039 -0.47076 -43.40500 6.05297 12.65105 7.12100 -0.00139 0.01385 0.01495 -5.40021 21.46941 5.70592 -14.68014 12.72142 12.93255 -100.63822 -56.16339 -81.98681 -38.45552 59.53045 -105.61491 8.70004 9.79271 1.69682 6.45241 19.22904 18.18280 67.95410 -26.98239 68.94289 28.97346 48.92298 113.13525 -5.76143 9.84839 0.39207 -0.40404 -24.25212 13.10764 374.53613 33.75226 -374.61111 -6.35815 -0.54933 0.17141 8.51039 0.53127 -8.48111 -6.19629 -3.92290 -19.57811 -365.55872 68.72186 384.73502 17.77258 -0.27578 -0.37535 -0.98925 -18.51040 2.66679 
102.71379 91.56102 -102.29893 -4.75939 -0.99359 -46.55020 1.57358 11.09258 9.45215 0.00138 0.00543 0.01060 -5.98091 22.15102 5.88384 -13.97323 11.36341 12.16035 -99.70432 -56.62391 -80.66410 -37.34682 59.52394 -106.43924 8.27497 9.65809 0.69697 7.25968 17.81152 17.92721 66.78799 -26.85099 67.10838 28.55295 48.70243 114.09602 -5.39609 10.46840 0.67152 -4.69902 -24.28972 9.01356 375.92126 27.85097 -375.87045 -13.75584 -0.56357 0.08633 3.13065 1.57810 3.84186 -4.31862 -1.15046 -18.75212 -363.90625 62.27679 380.60046 15.28884 -0.13546 -0.00837 -6.01798 -30.28242 -0.56921 
104.13768 93.09864 -102.65229 -1.23128 -1.52318 -49.27723 -2.26149 9.56978 11.29322 0.00091 0.00314 0.00800 -6.37542 22.47761 6.19319 -12.90626 10.15142 11.28606 -99.09102 -57.06902 -79.70754 -36.68576 59.27473 -106.77861 8.46061 9.74239 0.83732 8.19405 16.44103 17.51446 65.92844 -26.45359 65.66129 28.01736 48.52243 114.87874 -5.68129 10.09319 0.92075 -8.17090 -24.34837 3.87498 377.53552 23.33685 -376.10495 -21.35622 -0.54342 -0.02054 18.42076 3.30724 -8.18638 -3.04364 2.52819 -17.28139 -362.58301 52.90128 376.35138 6.83651 -0.20592 0.19322 -6.97703 -39.86996 -4.22232 
105.63675 93.90274 -103.15308 1.60477 -1.97295 -51.72338 -5.46170 8.17207 12.77246 -0.00121 0.00840 0.00667 -6.60004 22.47834 6.64391 -5.35814 9.28724 -0.52370 -108.66593 -67.56761 -83.07747 -36.49273 59.09219 -107.34357 7.97831 9.40909 0.03553 13.49232 10.79467 5.72265 62.30535 -14.23894 64.94462 27.47834 48.22921 114.93863 -5.69295 10.73825 1.29105 -10.78446 -24.46653 -2.06740 379.03458 20.31788 -375.86850 -28.70700 -0.50876 -0.11632 15.79732 6.07115 2.97760 -2.42278 5.90769 -16.02420 -362.67880 42.58330 374.08578 1.94408 -0.17737 0.19517 10.54570 -33.22100 -12.39427 
107.07037 94.27467 -103.71693 4.11145 -2.41226 -54.11192 -8.37034 6.73444 13.99210 -0.00114 0.00654 0.00405 -6.78330 22.40722 7.26195 -0.08435 7.79963 -7.95903 -119.03329 -74.49934 -89.37349 -36.73377 58.85920 -107.98158 7.60030 9.13756 -0.40524 16.83276 6.29633 -1.58946 59.95374 -5.98793 64.86218 27.03526 47.86370 114.65621 -5.80161 11.05058 1.65998 -13.16215 -24.63103 -8.26672 380.00854 17.58545 -375.23868 -35.24572 -0.44609 -0.12926 14.65764 4.75222 7.89862 -2.16475 9.17732 -14.84233 -363.12595 32.24443 372.34314 -1.91856 -0.10777 0.16062 15.76837 -30.77170 -20.43056 
108.51968 94.29314 -104.24892 6.30226 -2.84137 -56.45035 -10.97118 5.28714 14.95170 -0.00032 0.00206 0.00100 -6.96453 22.27691 8.05799 3.67333 6.48463 -12.22593 -126.08456 -77.81346 -94.38357 -36.39640 57.58141 -108.48663 7.24795 8.85952 -0.58442 19.01874 3.16275 -6.11982 58.54507 -0.58475 65.09417 26.70612 47.50462 114.27666 -5.99065 11.15631 1.93970 -14.99474 -24.94507 -14.44745 379.51501 15.50519 -374.09674 -30.38428 0.29431 0.06058 5.55332 -0.03832 8.70910 -2.13711 12.41505 -13.69516 -363.66986 21.87394 370.77484 -4.77594 -0.09070 0.12455 14.13093 -29.65605 -25.15423 
110.04280 94.07070 -104.71446 8.21907 -3.27664 -58.74203 -13.27880 3.85938 15.65835 -0.00104 -0.00080 -0.00109 -7.17620 22.08844 9.03274 6.43188 5.60905 -14.33542 -130.46211 -79.47655 -97.71287 -36.57714 56.22917 -108.59225 6.91105 8.51237 -0.58234 20.54102 1.30812 -8.86693 58.52613 1.71128 65.13433 26.43640 47.06845 113.63429 -5.37912 10.04392 2.67694 -16.47851 -25.31665 -20.39723 379.60934 13.84060 -373.03809 -25.55243 0.33086 0.02168 -1.37491 -6.81240 7.51958 -2.58835 15.43035 -12.39237 -364.05664 11.75618 369.19284 -6.74747 -0.07368 0.08781 9.19305 -29.18699 -26.27169 
111.45454 93.25538 -105.11213 9.30589 -3.92760 -61.15650 -15.37796 3.10893 16.06281 -0.00749 0.01398 -0.03039 -7.48489 22.01917 10.11529 8.29483 5.15838 -14.83348 -128.48849 -79.23094 -95.59724 -36.75368 55.10545 -106.51589 7.32660 9.10230 -1.08801 21.66261 0.37574 -10.46203 60.26682 2.82421 64.84915 25.91658 47.03999 111.86044 -4.12557 11.07409 -1.40653 -16.95954 -25.21483 -25.80504 379.25302 12.31352 -370.90503 -20.26107 0.31470 -0.03706 -4.62321 -5.13954 10.32516 -3.43731 18.85306 -10.66862 -363.71692 1.59729 366.44043 -6.53556 -0.00111 -0.02728 -0.24211 -28.43264 -27.89753 
112.80052 92.51309 -105.38837 9.59622 -4.72441 -63.59753 -17.25970 3.01525 16.13239 -0.00587 0.01567 -0.03084 -7.92557 22.09822 11.23975 9.39125 5.09245 -13.94347 -122.91856 -77.37704 -90.44887 -36.94005 54.30366 -102.64442 8.42577 10.46464 -2.65337 22.51744 0.19123 -11.06462 62.30442 3.48029 64.59487 24.75200 46.10592 109.59592 -1.64457 13.46454 -7.32561 -16.47516 -24.57899 -30.64339 378.58630 10.85966 -367.84824 -14.64137 0.27261 -0.08031 -9.17387 -2.77355 13.96621 -4.69111 22.52894 -8.58594 -362.88159 -8.35904 362.74234 -5.34201 0.04878 -0.08291 -5.84471 -25.80720 -25.49482 
114.11181 91.74314 -105.58490 9.11629 -5.57653 -65.99535 -18.90109 3.58109 15.85478 -0.00358 0.01682 -0.02891 -8.53713 22.28557 12.41109 9.83555 5.27552 -11.98683 -118.08360 -75.33961 -86.49879 -37.24050 53.47016 -99.12516 9.59807 11.76482 -4.04460 23.15408 0.57215 -10.72644 64.50777 3.79505 64.31990 22.81826 44.38770 107.10668 2.31941 17.00004 -13.49345 -15.16567 -23.36963 -34.93821 377.67450 9.42490 -364.03058 -8.72115 0.22040 -0.10966 -14.67851 -0.16579 17.68093 -6.31352 26.31016 -6.17143 -361.67709 -17.79138 358.25296 -4.13753 0.06630 -0.08550 -8.76340 -22.35741 -20.48898 
